<svg xmlns="http://www.w3.org/2000/svg" xmlns:v="https://svgstorm.com"
viewBox = "0 0 512 512"
width="512"
height="512">
<g fill="None" fill-opacity="0.0" stroke="#000000" stroke-opacity="0.01" stroke-width="0.3"><path d="
M 0.00 246.00 
C 0.50 246.00 1.00 246.00 1.00 246.00
C 1.00 194.97 24.09 137.64 52.39 100.25 C 80.70 62.85 114.07 41.65 143.25 26.81 C 172.44 11.98 205.33 2.26 246.00 0.00
L 0.00 0.00
L 0.00 246.00 Z"/>
</g>
<g fill="None" fill-opacity="0.0" stroke="#000000" stroke-opacity="1.00" stroke-width="0.3"><path d="
M 1.00 246.00 
C 1.00 254.93 0.39 264.09 1.00 273.00
C 9.65 400.13 119.64 510.86 249.00 512.00
L 262.00 512.00
C 266.10 509.89 272.14 511.43 277.00 511.00
C 396.82 500.46 504.35 398.58 511.00 276.00
C 511.16 273.13 510.09 269.04 512.00 267.00
L 512.00 244.00
C 509.96 232.96 509.09 210.41 505.67 200.33 C 502.25 190.25 501.54 167.70 487.98 168.02 C 474.41 168.35 463.83 181.19 449.00 180.00 C 434.17 178.81 427.68 166.71 414.98 164.03 C 402.27 161.34 385.79 176.68 372.33 169.67 C 358.87 162.67 351.87 160.58 345.08 146.92 C 338.28 133.26 342.94 118.45 342.00 105.00
C 333.57 98.87 323.24 95.09 316.08 85.92 C 308.92 76.75 306.37 68.52 307.31 55.31 C 308.24 42.09 311.54 39.74 320.08 29.08 C 328.62 18.43 318.25 5.66 307.25 5.60 C 296.25 5.55 287.79 -0.43 276.00 1.00
C 272.48 0.83 267.70 1.94 265.00 0.00
L 246.00 0.00
C 205.33 2.26 172.44 11.98 143.25 26.81 C 114.07 41.65 80.70 62.85 52.39 100.25 C 24.09 137.64 1.00 194.97 1.00 246.00
M 289.00 19.00 
C 293.66 19.41 298.33 21.38 303.00 22.00
C 279.03 50.81 290.25 100.67 326.00 114.00
C 324.99 116.79 324.82 119.89 325.00 123.00
C 324.94 126.00 325.00 129.00 325.00 132.00
C 325.00 150.25 335.63 166.31 350.00 177.00
C 358.23 183.12 368.71 186.79 379.00 187.00
C 382.32 187.07 385.68 187.07 389.00 187.00
C 398.39 186.81 407.05 179.57 414.75 183.25 C 422.45 186.93 428.98 193.03 438.22 194.78 C 447.47 196.52 460.70 196.67 470.00 194.00
C 475.30 192.48 479.98 188.91 485.00 187.00
C 522.41 303.60 453.58 441.72 337.00 480.00
C 303.54 498.06 252.24 496.47 215.78 491.22 C 179.32 485.97 146.08 471.01 116.92 450.08 C 87.75 429.15 68.42 407.33 50.23 376.77 C 32.04 346.21 18.00 304.93 18.00 268.00
C 17.30 260.76 17.31 252.17 18.00 245.00
C 18.00 177.80 50.15 122.56 99.25 76.25 C 148.34 29.93 221.62 13.07 289.00 19.00 Z"/>
</g>
<g fill="None" fill-opacity="0.0" stroke="#000000" stroke-opacity="0.56" stroke-width="0.3"><path d="
M 276.00 1.00 
C 275.90 0.98 276.00 0.00 276.00 0.00
L 265.00 0.00
C 267.70 1.94 272.48 0.83 276.00 1.00 Z"/>
</g>
<g fill="None" fill-opacity="0.0" stroke="#000000" stroke-opacity="0.01" stroke-width="0.3"><path d="
M 276.00 1.00 
C 287.79 -0.43 296.25 5.55 307.25 5.60 C 318.25 5.66 328.62 18.43 320.08 29.08 C 311.54 39.74 308.24 42.09 307.31 55.31 C 306.37 68.52 308.92 76.75 316.08 85.92 C 323.24 95.09 333.57 98.87 342.00 105.00
C 342.94 118.45 338.28 133.26 345.08 146.92 C 351.87 160.58 358.87 162.67 372.33 169.67 C 385.79 176.68 402.27 161.34 414.98 164.03 C 427.68 166.71 434.17 178.81 449.00 180.00 C 463.83 181.19 474.41 168.35 487.98 168.02 C 501.54 167.70 502.25 190.25 505.67 200.33 C 509.09 210.41 509.96 232.96 512.00 244.00
L 512.00 0.00
L 276.00 0.00
C 276.00 0.00 275.90 0.98 276.00 1.00
M 345.00 34.00 
C 366.37 32.07 379.29 49.53 373.29 68.30 C 367.29 87.06 343.54 88.95 330.75 76.25 C 317.96 63.55 326.07 35.71 345.00 34.00
M 380.00 102.00 
C 400.66 100.14 414.19 119.45 407.43 137.77 C 400.66 156.08 376.31 157.76 364.10 143.90 C 351.89 130.04 361.14 103.70 380.00 102.00
M 446.00 111.00 
C 466.56 107.64 480.60 123.89 476.29 143.30 C 471.98 162.71 446.97 166.14 433.75 153.25 C 420.53 140.36 427.69 113.99 446.00 111.00 Z"/>
</g>
<g fill="None" fill-opacity="0.0" stroke="#FE9703" stroke-opacity="1.00" stroke-width="0.3"><path d="
M 18.00 245.00 
C 18.00 252.67 18.00 260.33 18.00 268.00
C 18.00 304.93 32.04 346.21 50.23 376.77 C 68.42 407.33 87.75 429.15 116.92 450.08 C 146.08 471.01 179.32 485.97 215.78 491.22 C 252.24 496.47 303.54 498.06 337.00 480.00
C 342.28 477.15 345.46 475.17 351.08 472.08 C 356.70 468.99 359.37 467.55 365.25 463.25 C 371.12 458.94 371.95 460.09 379.08 454.08 C 386.21 448.08 396.68 440.10 403.25 433.25 C 409.81 426.40 409.88 427.89 414.75 421.75 C 419.62 415.61 420.13 415.22 424.92 408.92 C 429.71 402.61 429.25 403.71 434.75 395.75 C 440.26 387.80 446.69 375.77 451.30 367.31 C 455.92 358.84 455.12 358.27 458.32 351.32 C 461.52 344.37 462.49 341.27 464.78 334.78 C 467.06 328.29 468.43 323.42 469.93 316.93 C 471.42 310.43 473.19 304.71 474.00 298.00 C 474.80 291.29 476.07 285.69 476.78 278.78 C 477.49 271.87 476.59 263.05 477.00 256.00 C 477.41 248.95 476.64 240.27 476.22 233.78 C 475.81 227.29 473.78 218.87 474.00 213.00 C 474.22 207.13 467.61 198.97 470.00 194.00
C 460.70 196.67 447.47 196.52 438.22 194.78 C 428.98 193.03 422.45 186.93 414.75 183.25 C 407.05 179.57 398.39 186.81 389.00 187.00
C 385.72 187.40 382.22 187.39 379.00 187.00
C 368.71 186.79 358.23 183.12 350.00 177.00
C 339.30 174.19 325.68 171.26 318.70 159.30 C 311.71 147.34 302.81 136.49 307.93 120.93 C 313.04 105.37 294.32 103.85 285.75 93.25 C 277.19 82.65 272.08 69.12 273.00 55.00 C 273.92 40.88 282.70 30.56 289.00 19.00
C 221.62 13.07 148.34 29.93 99.25 76.25 C 50.15 122.56 18.00 177.80 18.00 245.00
M 138.00 102.00 
C 148.43 103.39 146.31 121.13 135.00 119.00 C 123.69 116.87 127.70 100.63 138.00 102.00
M 202.00 120.00 
C 212.75 122.66 216.48 134.07 225.75 141.25 C 235.02 148.43 228.16 165.70 219.75 171.75 C 211.35 177.81 202.81 192.87 190.98 187.02 C 179.14 181.18 177.17 174.19 167.25 165.75 C 157.33 157.31 163.15 143.75 172.25 136.25 C 181.35 128.74 187.82 116.49 202.00 120.00
M 277.00 120.00 
C 286.59 123.20 279.08 141.50 269.33 135.67 C 259.58 129.84 267.11 116.70 277.00 120.00
M 328.00 222.00 
C 339.52 224.39 342.26 235.82 352.25 242.75 C 362.24 249.69 357.81 266.33 348.75 272.75 C 339.69 279.17 332.87 293.73 320.33 289.67 C 307.79 285.61 305.49 277.38 295.75 269.25 C 286.02 261.11 290.10 246.35 299.25 239.25 C 308.40 232.15 314.41 219.18 328.00 222.00
M 96.00 230.00 
C 106.82 232.37 101.81 250.71 91.00 247.00 C 80.19 243.29 86.47 227.92 96.00 230.00
M 225.00 239.00 
C 235.01 241.69 229.12 260.18 218.78 255.22 C 208.44 250.26 214.66 236.23 225.00 239.00
M 201.00 327.00 
C 196.37 333.68 188.45 341.20 182.00 346.00
C 170.20 354.77 160.05 346.49 151.75 338.25 C 143.45 330.01 131.25 319.25 138.77 307.77 C 146.29 296.30 150.80 291.87 162.08 284.08 C 173.37 276.29 184.28 287.85 192.75 296.25 C 201.23 304.64 209.49 314.75 201.00 327.00
M 413.00 299.00 
C 422.61 301.74 416.98 319.50 406.93 315.07 C 396.87 310.65 401.56 295.74 413.00 299.00
M 267.00 341.00 
C 277.35 343.49 272.97 361.45 262.00 358.00 C 251.02 354.55 257.00 338.60 267.00 341.00
M 364.00 359.00 
C 374.79 361.51 378.32 373.17 387.75 380.25 C 397.18 387.33 390.20 404.79 381.75 410.75 C 373.30 416.72 364.69 431.90 352.98 426.02 C 341.26 420.14 338.83 413.38 329.25 404.75 C 319.67 396.12 325.17 382.83 334.25 375.25 C 343.33 367.66 349.81 355.70 364.00 359.00
M 122.00 367.00 
C 131.91 369.66 127.80 386.77 117.33 383.67 C 106.86 380.57 111.27 364.12 122.00 367.00
M 200.00 424.00 
C 204.45 417.58 212.55 409.29 219.00 405.00
C 231.05 396.98 241.15 404.42 249.25 412.75 C 257.34 421.08 270.38 432.19 262.68 443.68 C 254.98 455.17 249.94 458.93 238.92 466.92 C 227.91 474.92 216.60 463.15 208.25 454.75 C 199.89 446.35 191.48 436.29 200.00 424.00
M 311.00 427.00 
C 320.14 430.21 314.95 447.42 304.78 443.22 C 294.61 439.02 299.70 423.03 311.00 427.00 Z"/>
</g>
<g fill="None" fill-opacity="0.0" stroke="#F37B00" stroke-opacity="1.00" stroke-width="0.3"><path d="
M 350.00 177.00 
C 335.63 166.31 325.00 150.25 325.00 132.00
C 324.72 129.11 324.66 125.85 325.00 123.00
C 324.82 119.89 324.99 116.79 326.00 114.00
C 290.25 100.67 279.03 50.81 303.00 22.00
C 298.33 21.38 293.66 19.41 289.00 19.00
C 282.70 30.56 273.92 40.88 273.00 55.00 C 272.08 69.12 277.19 82.65 285.75 93.25 C 294.32 103.85 313.04 105.37 307.93 120.93 C 302.81 136.49 311.71 147.34 318.70 159.30 C 325.68 171.26 339.30 174.19 350.00 177.00 Z"/>
</g>
<g fill="None" fill-opacity="0.0" stroke="#000000" stroke-opacity="0.98" stroke-width="0.3"><path d="
M 345.00 34.00 
C 326.07 35.71 317.96 63.55 330.75 76.25 C 343.54 88.95 367.29 87.06 373.29 68.30 C 379.29 49.53 366.37 32.07 345.00 34.00
M 352.00 51.00 
C 362.98 53.01 357.69 72.07 347.00 68.00 C 336.31 63.93 342.12 49.20 352.00 51.00 Z"/>
</g>
<g fill="None" fill-opacity="0.0" stroke="#8C532B" stroke-opacity="1.00" stroke-width="0.3"><path d="
M 352.00 51.00 
C 342.12 49.20 336.31 63.93 347.00 68.00 C 357.69 72.07 362.98 53.01 352.00 51.00 Z"/>
</g>
<g fill="None" fill-opacity="0.0" stroke="#000000" stroke-opacity="1.00" stroke-width="0.3"><path d="
M 138.00 102.00 
C 127.70 100.63 123.69 116.87 135.00 119.00 C 146.31 121.13 148.43 103.39 138.00 102.00 Z"/>
</g>
<g fill="None" fill-opacity="0.0" stroke="#000000" stroke-opacity="0.98" stroke-width="0.3"><path d="
M 380.00 102.00 
C 361.14 103.70 351.89 130.04 364.10 143.90 C 376.31 157.76 400.66 156.08 407.43 137.77 C 414.19 119.45 400.66 100.14 380.00 102.00
M 388.00 120.00 
C 397.60 123.20 390.01 141.65 380.33 135.67 C 370.65 129.69 377.66 116.55 388.00 120.00 Z"/>
</g>
<g fill="None" fill-opacity="0.0" stroke="#000000" stroke-opacity="0.98" stroke-width="0.3"><path d="
M 446.00 111.00 
C 427.69 113.99 420.53 140.36 433.75 153.25 C 446.97 166.14 471.98 162.71 476.29 143.30 C 480.60 123.89 466.56 107.64 446.00 111.00
M 455.00 128.00 
C 465.16 130.73 460.48 148.04 450.00 145.00 C 439.52 141.96 443.79 124.99 455.00 128.00 Z"/>
</g>
<g fill="None" fill-opacity="0.0" stroke="#000000" stroke-opacity="1.00" stroke-width="0.3"><path d="
M 202.00 120.00 
C 187.82 116.49 181.35 128.74 172.25 136.25 C 163.15 143.75 157.33 157.31 167.25 165.75 C 177.17 174.19 179.14 181.18 190.98 187.02 C 202.81 192.87 211.35 177.81 219.75 171.75 C 228.16 165.70 235.02 148.43 225.75 141.25 C 216.48 134.07 212.75 122.66 202.00 120.00
M 213.00 152.00 
C 208.71 156.61 203.48 166.18 197.25 169.25 C 191.02 172.31 184.69 156.58 179.00 155.00
C 183.29 150.39 188.52 140.82 194.75 137.75 C 200.98 134.69 207.31 150.42 213.00 152.00 Z"/>
</g>
<g fill="None" fill-opacity="0.0" stroke="#000000" stroke-opacity="1.00" stroke-width="0.3"><path d="
M 277.00 120.00 
C 267.11 116.70 259.58 129.84 269.33 135.67 C 279.08 141.50 286.59 123.20 277.00 120.00 Z"/>
</g>
<g fill="None" fill-opacity="0.0" stroke="#8D532B" stroke-opacity="1.00" stroke-width="0.3"><path d="
M 388.00 120.00 
C 377.66 116.55 370.65 129.69 380.33 135.67 C 390.01 141.65 397.60 123.20 388.00 120.00 Z"/>
</g>
<g fill="None" fill-opacity="0.0" stroke="#633200" stroke-opacity="1.00" stroke-width="0.3"><path d="
M 325.00 132.00 
C 325.00 129.00 324.94 126.00 325.00 123.00
C 324.66 125.85 324.72 129.11 325.00 132.00 Z"/>
</g>
<g fill="None" fill-opacity="0.0" stroke="#8B532B" stroke-opacity="1.00" stroke-width="0.3"><path d="
M 455.00 128.00 
C 443.79 124.99 439.52 141.96 450.00 145.00 C 460.48 148.04 465.16 130.73 455.00 128.00 Z"/>
</g>
<g fill="None" fill-opacity="0.0" stroke="#6B3F21" stroke-opacity="1.00" stroke-width="0.3"><path d="
M 213.00 152.00 
C 207.31 150.42 200.98 134.69 194.75 137.75 C 188.52 140.82 183.29 150.39 179.00 155.00
C 184.69 156.58 191.02 172.31 197.25 169.25 C 203.48 166.18 208.71 156.61 213.00 152.00 Z"/>
</g>
<g fill="None" fill-opacity="0.0" stroke="#794800" stroke-opacity="1.00" stroke-width="0.3"><path d="
M 389.00 187.00 
C 385.68 187.07 382.32 187.07 379.00 187.00
C 382.22 187.39 385.72 187.40 389.00 187.00 Z"/>
</g>
<g fill="None" fill-opacity="0.0" stroke="#F27A00" stroke-opacity="1.00" stroke-width="0.3"><path d="
M 470.00 194.00 
C 467.61 198.97 474.22 207.13 474.00 213.00 C 473.78 218.87 475.81 227.29 476.22 233.78 C 476.64 240.27 477.41 248.95 477.00 256.00 C 476.59 263.05 477.49 271.87 476.78 278.78 C 476.07 285.69 474.80 291.29 474.00 298.00 C 473.19 304.71 471.42 310.43 469.93 316.93 C 468.43 323.42 467.06 328.29 464.78 334.78 C 462.49 341.27 461.52 344.37 458.32 351.32 C 455.12 358.27 455.92 358.84 451.30 367.31 C 446.69 375.77 440.26 387.80 434.75 395.75 C 429.25 403.71 429.71 402.61 424.92 408.92 C 420.13 415.22 419.62 415.61 414.75 421.75 C 409.88 427.89 409.81 426.40 403.25 433.25 C 396.68 440.10 386.21 448.08 379.08 454.08 C 371.95 460.09 371.12 458.94 365.25 463.25 C 359.37 467.55 356.70 468.99 351.08 472.08 C 345.46 475.17 342.28 477.15 337.00 480.00
C 453.58 441.72 522.41 303.60 485.00 187.00
C 479.98 188.91 475.30 192.48 470.00 194.00 Z"/>
</g>
<g fill="None" fill-opacity="0.0" stroke="#000000" stroke-opacity="1.00" stroke-width="0.3"><path d="
M 328.00 222.00 
C 314.41 219.18 308.40 232.15 299.25 239.25 C 290.10 246.35 286.02 261.11 295.75 269.25 C 305.49 277.38 307.79 285.61 320.33 289.67 C 332.87 293.73 339.69 279.17 348.75 272.75 C 357.81 266.33 362.24 249.69 352.25 242.75 C 342.26 235.82 339.52 224.39 328.00 222.00
M 324.00 273.00 
C 317.85 268.32 313.11 261.63 307.00 257.00
C 309.58 249.88 314.38 250.63 318.75 243.75 C 323.12 236.88 328.26 241.08 332.75 246.25 C 337.24 251.41 343.58 254.96 337.25 260.25 C 330.91 265.54 329.15 267.38 324.00 273.00 Z"/>
</g>
<g fill="None" fill-opacity="0.0" stroke="#000000" stroke-opacity="1.00" stroke-width="0.3"><path d="
M 96.00 230.00 
C 86.47 227.92 80.19 243.29 91.00 247.00 C 101.81 250.71 106.82 232.37 96.00 230.00 Z"/>
</g>
<g fill="None" fill-opacity="0.0" stroke="#000000" stroke-opacity="1.00" stroke-width="0.3"><path d="
M 225.00 239.00 
C 214.66 236.23 208.44 250.26 218.78 255.22 C 229.12 260.18 235.01 241.69 225.00 239.00 Z"/>
</g>
<g fill="None" fill-opacity="0.0" stroke="#6A3F21" stroke-opacity="1.00" stroke-width="0.3"><path d="
M 324.00 273.00 
C 329.15 267.38 330.91 265.54 337.25 260.25 C 343.58 254.96 337.24 251.41 332.75 246.25 C 328.26 241.08 323.12 236.88 318.75 243.75 C 314.38 250.63 309.58 249.88 307.00 257.00
C 313.11 261.63 317.85 268.32 324.00 273.00 Z"/>
</g>
<g fill="None" fill-opacity="0.0" stroke="#865000" stroke-opacity="1.00" stroke-width="0.3"><path d="
M 18.00 268.00 
C 18.00 260.33 18.00 252.67 18.00 245.00
C 17.31 252.17 17.30 260.76 18.00 268.00 Z"/>
</g>
<g fill="None" fill-opacity="0.0" stroke="#000000" stroke-opacity="0.62" stroke-width="0.3"><path d="
M 0.00 273.00 
C 0.50 273.00 1.00 273.00 1.00 273.00
C 0.39 264.09 1.00 254.93 1.00 246.00
C 1.00 246.00 0.50 246.00 0.00 246.00
L 0.00 273.00 Z"/>
</g>
<g fill="None" fill-opacity="0.0" stroke="#000000" stroke-opacity="0.67" stroke-width="0.3"><path d="
M 511.00 276.00 
C 511.00 275.99 512.00 276.00 512.00 276.00
L 512.00 267.00
C 510.09 269.04 511.16 273.13 511.00 276.00 Z"/>
</g>
<g fill="None" fill-opacity="0.0" stroke="#000000" stroke-opacity="0.01" stroke-width="0.3"><path d="
M 0.00 512.00 
L 249.00 512.00
C 119.64 510.86 9.65 400.13 1.00 273.00
C 1.00 273.00 0.50 273.00 0.00 273.00
L 0.00 512.00 Z"/>
</g>
<g fill="None" fill-opacity="0.0" stroke="#000000" stroke-opacity="0.01" stroke-width="0.3"><path d="
M 277.00 511.00 
C 276.79 511.11 277.00 512.00 277.00 512.00
L 512.00 512.00
L 512.00 276.00
C 512.00 276.00 511.00 275.99 511.00 276.00
C 504.35 398.58 396.82 500.46 277.00 511.00 Z"/>
</g>
<g fill="None" fill-opacity="0.0" stroke="#000000" stroke-opacity="1.00" stroke-width="0.3"><path d="
M 182.00 346.00 
C 188.12 340.67 195.94 333.22 201.00 327.00
C 209.49 314.75 201.23 304.64 192.75 296.25 C 184.28 287.85 173.37 276.29 162.08 284.08 C 150.80 291.87 146.29 296.30 138.77 307.77 C 131.25 319.25 143.45 330.01 151.75 338.25 C 160.05 346.49 170.20 354.77 182.00 346.00
M 188.00 315.00 
C 184.76 322.71 175.55 326.12 171.00 333.00
C 164.71 329.23 164.73 325.05 158.25 320.75 C 151.77 316.45 156.47 311.39 161.25 307.25 C 166.03 303.11 169.76 296.37 174.75 302.25 C 179.75 308.13 182.82 310.07 188.00 315.00 Z"/>
</g>
<g fill="None" fill-opacity="0.0" stroke="#6B3F21" stroke-opacity="1.00" stroke-width="0.3"><path d="
M 188.00 315.00 
C 182.82 310.07 179.75 308.13 174.75 302.25 C 169.76 296.37 166.03 303.11 161.25 307.25 C 156.47 311.39 151.77 316.45 158.25 320.75 C 164.73 325.05 164.71 329.23 171.00 333.00
C 175.55 326.12 184.76 322.71 188.00 315.00 Z"/>
</g>
<g fill="None" fill-opacity="0.0" stroke="#000000" stroke-opacity="1.00" stroke-width="0.3"><path d="
M 413.00 299.00 
C 401.56 295.74 396.87 310.65 406.93 315.07 C 416.98 319.50 422.61 301.74 413.00 299.00 Z"/>
</g>
<g fill="None" fill-opacity="0.0" stroke="#764600" stroke-opacity="1.00" stroke-width="0.3"><path d="
M 182.00 346.00 
C 188.45 341.20 196.37 333.68 201.00 327.00
C 195.94 333.22 188.12 340.67 182.00 346.00 Z"/>
</g>
<g fill="None" fill-opacity="0.0" stroke="#000000" stroke-opacity="1.00" stroke-width="0.3"><path d="
M 267.00 341.00 
C 257.00 338.60 251.02 354.55 262.00 358.00 C 272.97 361.45 277.35 343.49 267.00 341.00 Z"/>
</g>
<g fill="None" fill-opacity="0.0" stroke="#000000" stroke-opacity="1.00" stroke-width="0.3"><path d="
M 364.00 359.00 
C 349.81 355.70 343.33 367.66 334.25 375.25 C 325.17 382.83 319.67 396.12 329.25 404.75 C 338.83 413.38 341.26 420.14 352.98 426.02 C 364.69 431.90 373.30 416.72 381.75 410.75 C 390.20 404.79 397.18 387.33 387.75 380.25 C 378.32 373.17 374.79 361.51 364.00 359.00
M 376.00 392.00 
C 370.44 394.88 365.44 408.13 358.92 408.92 C 352.39 409.70 347.14 394.37 341.00 393.00
C 346.56 390.12 351.56 376.87 358.08 376.08 C 364.61 375.30 369.86 390.63 376.00 392.00 Z"/>
</g>
<g fill="None" fill-opacity="0.0" stroke="#000000" stroke-opacity="1.00" stroke-width="0.3"><path d="
M 122.00 367.00 
C 111.27 364.12 106.86 380.57 117.33 383.67 C 127.80 386.77 131.91 369.66 122.00 367.00 Z"/>
</g>
<g fill="None" fill-opacity="0.0" stroke="#6B4021" stroke-opacity="1.00" stroke-width="0.3"><path d="
M 376.00 392.00 
C 369.86 390.63 364.61 375.30 358.08 376.08 C 351.56 376.87 346.56 390.12 341.00 393.00
C 347.14 394.37 352.39 409.70 358.92 408.92 C 365.44 408.13 370.44 394.88 376.00 392.00 Z"/>
</g>
<g fill="None" fill-opacity="0.0" stroke="#000000" stroke-opacity="1.00" stroke-width="0.3"><path d="
M 219.00 405.00 
C 212.90 409.77 204.85 418.04 200.00 424.00
C 191.48 436.29 199.89 446.35 208.25 454.75 C 216.60 463.15 227.91 474.92 238.92 466.92 C 249.94 458.93 254.98 455.17 262.68 443.68 C 270.38 432.19 257.34 421.08 249.25 412.75 C 241.15 404.42 231.05 396.98 219.00 405.00
M 231.00 418.00 
C 236.18 423.99 242.04 429.89 248.00 435.00
C 242.44 437.88 237.44 451.13 230.92 451.92 C 224.39 452.70 219.14 437.37 213.00 436.00
C 217.23 429.31 224.32 422.19 231.00 418.00 Z"/>
</g>
<g fill="None" fill-opacity="0.0" stroke="#7B4900" stroke-opacity="1.00" stroke-width="0.3"><path d="
M 200.00 424.00 
C 204.85 418.04 212.90 409.77 219.00 405.00
C 212.55 409.29 204.45 417.58 200.00 424.00 Z"/>
</g>
<g fill="None" fill-opacity="0.0" stroke="#6A3F21" stroke-opacity="1.00" stroke-width="0.3"><path d="
M 231.00 418.00 
C 224.32 422.19 217.23 429.31 213.00 436.00
C 219.14 437.37 224.39 452.70 230.92 451.92 C 237.44 451.13 242.44 437.88 248.00 435.00
C 242.04 429.89 236.18 423.99 231.00 418.00 Z"/>
</g>
<g fill="None" fill-opacity="0.0" stroke="#000000" stroke-opacity="1.00" stroke-width="0.3"><path d="
M 311.00 427.00 
C 299.70 423.03 294.61 439.02 304.78 443.22 C 314.95 447.42 320.14 430.21 311.00 427.00 Z"/>
</g>
<g fill="None" fill-opacity="0.0" stroke="#000000" stroke-opacity="0.59" stroke-width="0.3"><path d="
M 262.00 512.00 
L 277.00 512.00
C 277.00 512.00 276.79 511.11 277.00 511.00
C 272.14 511.43 266.10 509.89 262.00 512.00 Z"/>
</g>
<g fill="#000000" fill-opacity="0.01" stroke="None">
<path d="
M 0.00 246.00 
C 0.50 246.00 1.00 246.00 1.00 246.00
C 1.00 194.97 24.09 137.64 52.39 100.25 C 80.70 62.85 114.07 41.65 143.25 26.81 C 172.44 11.98 205.33 2.26 246.00 0.00
L 0.00 0.00
L 0.00 246.00 Z"/>
</g>
<g fill="#000000" fill-opacity="1.00" stroke="None">
<path d="
M 1.00 246.00 
C 1.00 254.93 0.39 264.09 1.00 273.00
C 9.65 400.13 119.64 510.86 249.00 512.00
L 262.00 512.00
C 266.10 509.89 272.14 511.43 277.00 511.00
C 396.82 500.46 504.35 398.58 511.00 276.00
C 511.16 273.13 510.09 269.04 512.00 267.00
L 512.00 244.00
C 509.96 232.96 509.09 210.41 505.67 200.33 C 502.25 190.25 501.54 167.70 487.98 168.02 C 474.41 168.35 463.83 181.19 449.00 180.00 C 434.17 178.81 427.68 166.71 414.98 164.03 C 402.27 161.34 385.79 176.68 372.33 169.67 C 358.87 162.67 351.87 160.58 345.08 146.92 C 338.28 133.26 342.94 118.45 342.00 105.00
C 333.57 98.87 323.24 95.09 316.08 85.92 C 308.92 76.75 306.37 68.52 307.31 55.31 C 308.24 42.09 311.54 39.74 320.08 29.08 C 328.62 18.43 318.25 5.66 307.25 5.60 C 296.25 5.55 287.79 -0.43 276.00 1.00
C 272.48 0.83 267.70 1.94 265.00 0.00
L 246.00 0.00
C 205.33 2.26 172.44 11.98 143.25 26.81 C 114.07 41.65 80.70 62.85 52.39 100.25 C 24.09 137.64 1.00 194.97 1.00 246.00
M 289.00 19.00 
C 293.66 19.41 298.33 21.38 303.00 22.00
C 279.03 50.81 290.25 100.67 326.00 114.00
C 324.99 116.79 324.82 119.89 325.00 123.00
C 324.94 126.00 325.00 129.00 325.00 132.00
C 325.00 150.25 335.63 166.31 350.00 177.00
C 358.23 183.12 368.71 186.79 379.00 187.00
C 382.32 187.07 385.68 187.07 389.00 187.00
C 398.39 186.81 407.05 179.57 414.75 183.25 C 422.45 186.93 428.98 193.03 438.22 194.78 C 447.47 196.52 460.70 196.67 470.00 194.00
C 475.30 192.48 479.98 188.91 485.00 187.00
C 522.41 303.60 453.58 441.72 337.00 480.00
C 303.54 498.06 252.24 496.47 215.78 491.22 C 179.32 485.97 146.08 471.01 116.92 450.08 C 87.75 429.15 68.42 407.33 50.23 376.77 C 32.04 346.21 18.00 304.93 18.00 268.00
C 17.30 260.76 17.31 252.17 18.00 245.00
C 18.00 177.80 50.15 122.56 99.25 76.25 C 148.34 29.93 221.62 13.07 289.00 19.00 Z"/>
</g>
<g fill="#000000" fill-opacity="0.56" stroke="None">
<path d="
M 276.00 1.00 
C 275.90 0.98 276.00 0.00 276.00 0.00
L 265.00 0.00
C 267.70 1.94 272.48 0.83 276.00 1.00 Z"/>
</g>
<g fill="#000000" fill-opacity="0.01" stroke="None">
<path d="
M 276.00 1.00 
C 287.79 -0.43 296.25 5.55 307.25 5.60 C 318.25 5.66 328.62 18.43 320.08 29.08 C 311.54 39.74 308.24 42.09 307.31 55.31 C 306.37 68.52 308.92 76.75 316.08 85.92 C 323.24 95.09 333.57 98.87 342.00 105.00
C 342.94 118.45 338.28 133.26 345.08 146.92 C 351.87 160.58 358.87 162.67 372.33 169.67 C 385.79 176.68 402.27 161.34 414.98 164.03 C 427.68 166.71 434.17 178.81 449.00 180.00 C 463.83 181.19 474.41 168.35 487.98 168.02 C 501.54 167.70 502.25 190.25 505.67 200.33 C 509.09 210.41 509.96 232.96 512.00 244.00
L 512.00 0.00
L 276.00 0.00
C 276.00 0.00 275.90 0.98 276.00 1.00
M 345.00 34.00 
C 366.37 32.07 379.29 49.53 373.29 68.30 C 367.29 87.06 343.54 88.95 330.75 76.25 C 317.96 63.55 326.07 35.71 345.00 34.00
M 380.00 102.00 
C 400.66 100.14 414.19 119.45 407.43 137.77 C 400.66 156.08 376.31 157.76 364.10 143.90 C 351.89 130.04 361.14 103.70 380.00 102.00
M 446.00 111.00 
C 466.56 107.64 480.60 123.89 476.29 143.30 C 471.98 162.71 446.97 166.14 433.75 153.25 C 420.53 140.36 427.69 113.99 446.00 111.00 Z"/>
</g>
<g fill="#FE9703" fill-opacity="1.00" stroke="None">
<path d="
M 18.00 245.00 
C 18.00 252.67 18.00 260.33 18.00 268.00
C 18.00 304.93 32.04 346.21 50.23 376.77 C 68.42 407.33 87.75 429.15 116.92 450.08 C 146.08 471.01 179.32 485.97 215.78 491.22 C 252.24 496.47 303.54 498.06 337.00 480.00
C 342.28 477.15 345.46 475.17 351.08 472.08 C 356.70 468.99 359.37 467.55 365.25 463.25 C 371.12 458.94 371.95 460.09 379.08 454.08 C 386.21 448.08 396.68 440.10 403.25 433.25 C 409.81 426.40 409.88 427.89 414.75 421.75 C 419.62 415.61 420.13 415.22 424.92 408.92 C 429.71 402.61 429.25 403.71 434.75 395.75 C 440.26 387.80 446.69 375.77 451.30 367.31 C 455.92 358.84 455.12 358.27 458.32 351.32 C 461.52 344.37 462.49 341.27 464.78 334.78 C 467.06 328.29 468.43 323.42 469.93 316.93 C 471.42 310.43 473.19 304.71 474.00 298.00 C 474.80 291.29 476.07 285.69 476.78 278.78 C 477.49 271.87 476.59 263.05 477.00 256.00 C 477.41 248.95 476.64 240.27 476.22 233.78 C 475.81 227.29 473.78 218.87 474.00 213.00 C 474.22 207.13 467.61 198.97 470.00 194.00
C 460.70 196.67 447.47 196.52 438.22 194.78 C 428.98 193.03 422.45 186.93 414.75 183.25 C 407.05 179.57 398.39 186.81 389.00 187.00
C 385.72 187.40 382.22 187.39 379.00 187.00
C 368.71 186.79 358.23 183.12 350.00 177.00
C 339.30 174.19 325.68 171.26 318.70 159.30 C 311.71 147.34 302.81 136.49 307.93 120.93 C 313.04 105.37 294.32 103.85 285.75 93.25 C 277.19 82.65 272.08 69.12 273.00 55.00 C 273.92 40.88 282.70 30.56 289.00 19.00
C 221.62 13.07 148.34 29.93 99.25 76.25 C 50.15 122.56 18.00 177.80 18.00 245.00
M 138.00 102.00 
C 148.43 103.39 146.31 121.13 135.00 119.00 C 123.69 116.87 127.70 100.63 138.00 102.00
M 202.00 120.00 
C 212.75 122.66 216.48 134.07 225.75 141.25 C 235.02 148.43 228.16 165.70 219.75 171.75 C 211.35 177.81 202.81 192.87 190.98 187.02 C 179.14 181.18 177.17 174.19 167.25 165.75 C 157.33 157.31 163.15 143.75 172.25 136.25 C 181.35 128.74 187.82 116.49 202.00 120.00
M 277.00 120.00 
C 286.59 123.20 279.08 141.50 269.33 135.67 C 259.58 129.84 267.11 116.70 277.00 120.00
M 328.00 222.00 
C 339.52 224.39 342.26 235.82 352.25 242.75 C 362.24 249.69 357.81 266.33 348.75 272.75 C 339.69 279.17 332.87 293.73 320.33 289.67 C 307.79 285.61 305.49 277.38 295.75 269.25 C 286.02 261.11 290.10 246.35 299.25 239.25 C 308.40 232.15 314.41 219.18 328.00 222.00
M 96.00 230.00 
C 106.82 232.37 101.81 250.71 91.00 247.00 C 80.19 243.29 86.47 227.92 96.00 230.00
M 225.00 239.00 
C 235.01 241.69 229.12 260.18 218.78 255.22 C 208.44 250.26 214.66 236.23 225.00 239.00
M 201.00 327.00 
C 196.37 333.68 188.45 341.20 182.00 346.00
C 170.20 354.77 160.05 346.49 151.75 338.25 C 143.45 330.01 131.25 319.25 138.77 307.77 C 146.29 296.30 150.80 291.87 162.08 284.08 C 173.37 276.29 184.28 287.85 192.75 296.25 C 201.23 304.64 209.49 314.75 201.00 327.00
M 413.00 299.00 
C 422.61 301.74 416.98 319.50 406.93 315.07 C 396.87 310.65 401.56 295.74 413.00 299.00
M 267.00 341.00 
C 277.35 343.49 272.97 361.45 262.00 358.00 C 251.02 354.55 257.00 338.60 267.00 341.00
M 364.00 359.00 
C 374.79 361.51 378.32 373.17 387.75 380.25 C 397.18 387.33 390.20 404.79 381.75 410.75 C 373.30 416.72 364.69 431.90 352.98 426.02 C 341.26 420.14 338.83 413.38 329.25 404.75 C 319.67 396.12 325.17 382.83 334.25 375.25 C 343.33 367.66 349.81 355.70 364.00 359.00
M 122.00 367.00 
C 131.91 369.66 127.80 386.77 117.33 383.67 C 106.86 380.57 111.27 364.12 122.00 367.00
M 200.00 424.00 
C 204.45 417.58 212.55 409.29 219.00 405.00
C 231.05 396.98 241.15 404.42 249.25 412.75 C 257.34 421.08 270.38 432.19 262.68 443.68 C 254.98 455.17 249.94 458.93 238.92 466.92 C 227.91 474.92 216.60 463.15 208.25 454.75 C 199.89 446.35 191.48 436.29 200.00 424.00
M 311.00 427.00 
C 320.14 430.21 314.95 447.42 304.78 443.22 C 294.61 439.02 299.70 423.03 311.00 427.00 Z"/>
</g>
<g fill="#F37B00" fill-opacity="1.00" stroke="None">
<path d="
M 350.00 177.00 
C 335.63 166.31 325.00 150.25 325.00 132.00
C 324.72 129.11 324.66 125.85 325.00 123.00
C 324.82 119.89 324.99 116.79 326.00 114.00
C 290.25 100.67 279.03 50.81 303.00 22.00
C 298.33 21.38 293.66 19.41 289.00 19.00
C 282.70 30.56 273.92 40.88 273.00 55.00 C 272.08 69.12 277.19 82.65 285.75 93.25 C 294.32 103.85 313.04 105.37 307.93 120.93 C 302.81 136.49 311.71 147.34 318.70 159.30 C 325.68 171.26 339.30 174.19 350.00 177.00 Z"/>
</g>
<g fill="#000000" fill-opacity="0.98" stroke="None">
<path d="
M 345.00 34.00 
C 326.07 35.71 317.96 63.55 330.75 76.25 C 343.54 88.95 367.29 87.06 373.29 68.30 C 379.29 49.53 366.37 32.07 345.00 34.00
M 352.00 51.00 
C 362.98 53.01 357.69 72.07 347.00 68.00 C 336.31 63.93 342.12 49.20 352.00 51.00 Z"/>
</g>
<g fill="#8C532B" fill-opacity="1.00" stroke="None">
<path d="
M 352.00 51.00 
C 342.12 49.20 336.31 63.93 347.00 68.00 C 357.69 72.07 362.98 53.01 352.00 51.00 Z"/>
</g>
<g fill="#000000" fill-opacity="1.00" stroke="None">
<path d="
M 138.00 102.00 
C 127.70 100.63 123.69 116.87 135.00 119.00 C 146.31 121.13 148.43 103.39 138.00 102.00 Z"/>
</g>
<g fill="#000000" fill-opacity="0.98" stroke="None">
<path d="
M 380.00 102.00 
C 361.14 103.70 351.89 130.04 364.10 143.90 C 376.31 157.76 400.66 156.08 407.43 137.77 C 414.19 119.45 400.66 100.14 380.00 102.00
M 388.00 120.00 
C 397.60 123.20 390.01 141.65 380.33 135.67 C 370.65 129.69 377.66 116.55 388.00 120.00 Z"/>
</g>
<g fill="#000000" fill-opacity="0.98" stroke="None">
<path d="
M 446.00 111.00 
C 427.69 113.99 420.53 140.36 433.75 153.25 C 446.97 166.14 471.98 162.71 476.29 143.30 C 480.60 123.89 466.56 107.64 446.00 111.00
M 455.00 128.00 
C 465.16 130.73 460.48 148.04 450.00 145.00 C 439.52 141.96 443.79 124.99 455.00 128.00 Z"/>
</g>
<g fill="#000000" fill-opacity="1.00" stroke="None">
<path d="
M 202.00 120.00 
C 187.82 116.49 181.35 128.74 172.25 136.25 C 163.15 143.75 157.33 157.31 167.25 165.75 C 177.17 174.19 179.14 181.18 190.98 187.02 C 202.81 192.87 211.35 177.81 219.75 171.75 C 228.16 165.70 235.02 148.43 225.75 141.25 C 216.48 134.07 212.75 122.66 202.00 120.00
M 213.00 152.00 
C 208.71 156.61 203.48 166.18 197.25 169.25 C 191.02 172.31 184.69 156.58 179.00 155.00
C 183.29 150.39 188.52 140.82 194.75 137.75 C 200.98 134.69 207.31 150.42 213.00 152.00 Z"/>
</g>
<g fill="#000000" fill-opacity="1.00" stroke="None">
<path d="
M 277.00 120.00 
C 267.11 116.70 259.58 129.84 269.33 135.67 C 279.08 141.50 286.59 123.20 277.00 120.00 Z"/>
</g>
<g fill="#8D532B" fill-opacity="1.00" stroke="None">
<path d="
M 388.00 120.00 
C 377.66 116.55 370.65 129.69 380.33 135.67 C 390.01 141.65 397.60 123.20 388.00 120.00 Z"/>
</g>
<g fill="#633200" fill-opacity="1.00" stroke="None">
<path d="
M 325.00 132.00 
C 325.00 129.00 324.94 126.00 325.00 123.00
C 324.66 125.85 324.72 129.11 325.00 132.00 Z"/>
</g>
<g fill="#8B532B" fill-opacity="1.00" stroke="None">
<path d="
M 455.00 128.00 
C 443.79 124.99 439.52 141.96 450.00 145.00 C 460.48 148.04 465.16 130.73 455.00 128.00 Z"/>
</g>
<g fill="#6B3F21" fill-opacity="1.00" stroke="None">
<path d="
M 213.00 152.00 
C 207.31 150.42 200.98 134.69 194.75 137.75 C 188.52 140.82 183.29 150.39 179.00 155.00
C 184.69 156.58 191.02 172.31 197.25 169.25 C 203.48 166.18 208.71 156.61 213.00 152.00 Z"/>
</g>
<g fill="#794800" fill-opacity="1.00" stroke="None">
<path d="
M 389.00 187.00 
C 385.68 187.07 382.32 187.07 379.00 187.00
C 382.22 187.39 385.72 187.40 389.00 187.00 Z"/>
</g>
<g fill="#F27A00" fill-opacity="1.00" stroke="None">
<path d="
M 470.00 194.00 
C 467.61 198.97 474.22 207.13 474.00 213.00 C 473.78 218.87 475.81 227.29 476.22 233.78 C 476.64 240.27 477.41 248.95 477.00 256.00 C 476.59 263.05 477.49 271.87 476.78 278.78 C 476.07 285.69 474.80 291.29 474.00 298.00 C 473.19 304.71 471.42 310.43 469.93 316.93 C 468.43 323.42 467.06 328.29 464.78 334.78 C 462.49 341.27 461.52 344.37 458.32 351.32 C 455.12 358.27 455.92 358.84 451.30 367.31 C 446.69 375.77 440.26 387.80 434.75 395.75 C 429.25 403.71 429.71 402.61 424.92 408.92 C 420.13 415.22 419.62 415.61 414.75 421.75 C 409.88 427.89 409.81 426.40 403.25 433.25 C 396.68 440.10 386.21 448.08 379.08 454.08 C 371.95 460.09 371.12 458.94 365.25 463.25 C 359.37 467.55 356.70 468.99 351.08 472.08 C 345.46 475.17 342.28 477.15 337.00 480.00
C 453.58 441.72 522.41 303.60 485.00 187.00
C 479.98 188.91 475.30 192.48 470.00 194.00 Z"/>
</g>
<g fill="#000000" fill-opacity="1.00" stroke="None">
<path d="
M 328.00 222.00 
C 314.41 219.18 308.40 232.15 299.25 239.25 C 290.10 246.35 286.02 261.11 295.75 269.25 C 305.49 277.38 307.79 285.61 320.33 289.67 C 332.87 293.73 339.69 279.17 348.75 272.75 C 357.81 266.33 362.24 249.69 352.25 242.75 C 342.26 235.82 339.52 224.39 328.00 222.00
M 324.00 273.00 
C 317.85 268.32 313.11 261.63 307.00 257.00
C 309.58 249.88 314.38 250.63 318.75 243.75 C 323.12 236.88 328.26 241.08 332.75 246.25 C 337.24 251.41 343.58 254.96 337.25 260.25 C 330.91 265.54 329.15 267.38 324.00 273.00 Z"/>
</g>
<g fill="#000000" fill-opacity="1.00" stroke="None">
<path d="
M 96.00 230.00 
C 86.47 227.92 80.19 243.29 91.00 247.00 C 101.81 250.71 106.82 232.37 96.00 230.00 Z"/>
</g>
<g fill="#000000" fill-opacity="1.00" stroke="None">
<path d="
M 225.00 239.00 
C 214.66 236.23 208.44 250.26 218.78 255.22 C 229.12 260.18 235.01 241.69 225.00 239.00 Z"/>
</g>
<g fill="#6A3F21" fill-opacity="1.00" stroke="None">
<path d="
M 324.00 273.00 
C 329.15 267.38 330.91 265.54 337.25 260.25 C 343.58 254.96 337.24 251.41 332.75 246.25 C 328.26 241.08 323.12 236.88 318.75 243.75 C 314.38 250.63 309.58 249.88 307.00 257.00
C 313.11 261.63 317.85 268.32 324.00 273.00 Z"/>
</g>
<g fill="#865000" fill-opacity="1.00" stroke="None">
<path d="
M 18.00 268.00 
C 18.00 260.33 18.00 252.67 18.00 245.00
C 17.31 252.17 17.30 260.76 18.00 268.00 Z"/>
</g>
<g fill="#000000" fill-opacity="0.62" stroke="None">
<path d="
M 0.00 273.00 
C 0.50 273.00 1.00 273.00 1.00 273.00
C 0.39 264.09 1.00 254.93 1.00 246.00
C 1.00 246.00 0.50 246.00 0.00 246.00
L 0.00 273.00 Z"/>
</g>
<g fill="#000000" fill-opacity="0.67" stroke="None">
<path d="
M 511.00 276.00 
C 511.00 275.99 512.00 276.00 512.00 276.00
L 512.00 267.00
C 510.09 269.04 511.16 273.13 511.00 276.00 Z"/>
</g>
<g fill="#000000" fill-opacity="0.01" stroke="None">
<path d="
M 0.00 512.00 
L 249.00 512.00
C 119.64 510.86 9.65 400.13 1.00 273.00
C 1.00 273.00 0.50 273.00 0.00 273.00
L 0.00 512.00 Z"/>
</g>
<g fill="#000000" fill-opacity="0.01" stroke="None">
<path d="
M 277.00 511.00 
C 276.79 511.11 277.00 512.00 277.00 512.00
L 512.00 512.00
L 512.00 276.00
C 512.00 276.00 511.00 275.99 511.00 276.00
C 504.35 398.58 396.82 500.46 277.00 511.00 Z"/>
</g>
<g fill="#000000" fill-opacity="1.00" stroke="None">
<path d="
M 182.00 346.00 
C 188.12 340.67 195.94 333.22 201.00 327.00
C 209.49 314.75 201.23 304.64 192.75 296.25 C 184.28 287.85 173.37 276.29 162.08 284.08 C 150.80 291.87 146.29 296.30 138.77 307.77 C 131.25 319.25 143.45 330.01 151.75 338.25 C 160.05 346.49 170.20 354.77 182.00 346.00
M 188.00 315.00 
C 184.76 322.71 175.55 326.12 171.00 333.00
C 164.71 329.23 164.73 325.05 158.25 320.75 C 151.77 316.45 156.47 311.39 161.25 307.25 C 166.03 303.11 169.76 296.37 174.75 302.25 C 179.75 308.13 182.82 310.07 188.00 315.00 Z"/>
</g>
<g fill="#6B3F21" fill-opacity="1.00" stroke="None">
<path d="
M 188.00 315.00 
C 182.82 310.07 179.75 308.13 174.75 302.25 C 169.76 296.37 166.03 303.11 161.25 307.25 C 156.47 311.39 151.77 316.45 158.25 320.75 C 164.73 325.05 164.71 329.23 171.00 333.00
C 175.55 326.12 184.76 322.71 188.00 315.00 Z"/>
</g>
<g fill="#000000" fill-opacity="1.00" stroke="None">
<path d="
M 413.00 299.00 
C 401.56 295.74 396.87 310.65 406.93 315.07 C 416.98 319.50 422.61 301.74 413.00 299.00 Z"/>
</g>
<g fill="#764600" fill-opacity="1.00" stroke="None">
<path d="
M 182.00 346.00 
C 188.45 341.20 196.37 333.68 201.00 327.00
C 195.94 333.22 188.12 340.67 182.00 346.00 Z"/>
</g>
<g fill="#000000" fill-opacity="1.00" stroke="None">
<path d="
M 267.00 341.00 
C 257.00 338.60 251.02 354.55 262.00 358.00 C 272.97 361.45 277.35 343.49 267.00 341.00 Z"/>
</g>
<g fill="#000000" fill-opacity="1.00" stroke="None">
<path d="
M 364.00 359.00 
C 349.81 355.70 343.33 367.66 334.25 375.25 C 325.17 382.83 319.67 396.12 329.25 404.75 C 338.83 413.38 341.26 420.14 352.98 426.02 C 364.69 431.90 373.30 416.72 381.75 410.75 C 390.20 404.79 397.18 387.33 387.75 380.25 C 378.32 373.17 374.79 361.51 364.00 359.00
M 376.00 392.00 
C 370.44 394.88 365.44 408.13 358.92 408.92 C 352.39 409.70 347.14 394.37 341.00 393.00
C 346.56 390.12 351.56 376.87 358.08 376.08 C 364.61 375.30 369.86 390.63 376.00 392.00 Z"/>
</g>
<g fill="#000000" fill-opacity="1.00" stroke="None">
<path d="
M 122.00 367.00 
C 111.27 364.12 106.86 380.57 117.33 383.67 C 127.80 386.77 131.91 369.66 122.00 367.00 Z"/>
</g>
<g fill="#6B4021" fill-opacity="1.00" stroke="None">
<path d="
M 376.00 392.00 
C 369.86 390.63 364.61 375.30 358.08 376.08 C 351.56 376.87 346.56 390.12 341.00 393.00
C 347.14 394.37 352.39 409.70 358.92 408.92 C 365.44 408.13 370.44 394.88 376.00 392.00 Z"/>
</g>
<g fill="#000000" fill-opacity="1.00" stroke="None">
<path d="
M 219.00 405.00 
C 212.90 409.77 204.85 418.04 200.00 424.00
C 191.48 436.29 199.89 446.35 208.25 454.75 C 216.60 463.15 227.91 474.92 238.92 466.92 C 249.94 458.93 254.98 455.17 262.68 443.68 C 270.38 432.19 257.34 421.08 249.25 412.75 C 241.15 404.42 231.05 396.98 219.00 405.00
M 231.00 418.00 
C 236.18 423.99 242.04 429.89 248.00 435.00
C 242.44 437.88 237.44 451.13 230.92 451.92 C 224.39 452.70 219.14 437.37 213.00 436.00
C 217.23 429.31 224.32 422.19 231.00 418.00 Z"/>
</g>
<g fill="#7B4900" fill-opacity="1.00" stroke="None">
<path d="
M 200.00 424.00 
C 204.85 418.04 212.90 409.77 219.00 405.00
C 212.55 409.29 204.45 417.58 200.00 424.00 Z"/>
</g>
<g fill="#6A3F21" fill-opacity="1.00" stroke="None">
<path d="
M 231.00 418.00 
C 224.32 422.19 217.23 429.31 213.00 436.00
C 219.14 437.37 224.39 452.70 230.92 451.92 C 237.44 451.13 242.44 437.88 248.00 435.00
C 242.04 429.89 236.18 423.99 231.00 418.00 Z"/>
</g>
<g fill="#000000" fill-opacity="1.00" stroke="None">
<path d="
M 311.00 427.00 
C 299.70 423.03 294.61 439.02 304.78 443.22 C 314.95 447.42 320.14 430.21 311.00 427.00 Z"/>
</g>
<g fill="#000000" fill-opacity="0.59" stroke="None">
<path d="
M 262.00 512.00 
L 277.00 512.00
C 277.00 512.00 276.79 511.11 277.00 511.00
C 272.14 511.43 266.10 509.89 262.00 512.00 Z"/>
</g>
</svg>